<?xml version="1.0" encoding="UTF-8"?>
<svg id="Calque_1" xmlns="http://www.w3.org/2000/svg" viewBox="0 0 163.349 36.208">
  <g>
    <path class="cls-1" d="M17.817,36.208C7.834,36.208-.287,28.086-.287,18.104S7.834,0,17.817,0s18.104,8.122,18.104,18.104-8.121,18.104-18.104,18.104ZM17.817,2C8.937,2,1.713,9.224,1.713,18.104s7.224,16.104,16.104,16.104,16.104-7.224,16.104-16.104S26.696,2,17.817,2Z"/>
    <path class="cls-1" d="M24.027,22.552c-1.654,2.509-4.66,4.051-7.976,3.568-3.577-.521-6.44-3.495-6.842-7.087-.546-4.883,3.278-9.033,8.052-9.033,1.861,0,3.574.635,4.942,1.695.379.294.917.259,1.268-.069l.006-.006c.446-.417.423-1.142-.06-1.515-2.14-1.653-4.954-2.471-7.958-1.948-4.078.711-7.377,3.964-8.128,8.036-1.181,6.408,3.73,12.015,9.928,12.015,3.511,0,6.602-1.804,8.413-4.53.341-.513.133-1.214-.429-1.465h0c-.435-.194-.955-.058-1.217.339Z"/>
    <path class="cls-1" d="M25.976,17.023c-1.379,0-2.5-1.122-2.5-2.5s1.122-2.5,2.5-2.5,2.5,1.122,2.5,2.5-1.122,2.5-2.5,2.5ZM25.976,13.69c-.459,0-.833.374-.833.833s.374.833.833.833.833-.374.833-.833-.374-.833-.833-.833Z"/>
  </g>
  <g>
    <path class="cls-1" d="M62.192,24.536c-1.072,1.095-3.056,1.779-5.041,1.779-4.79,0-8.098-3.239-8.098-8.213,0-4.585,2.965-8.212,7.961-8.212,2.053,0,3.719.57,4.859,1.551l-.89,1.46c-1.049-.775-2.281-1.186-3.946-1.186-3.467,0-5.931,2.6-5.931,6.387,0,3.81,2.532,6.388,6.227,6.388,1.529,0,2.989-.525,4.084-1.414l.775,1.46Z"/>
    <path class="cls-1" d="M71.554,9.892c4.631,0,8.144,3.353,8.144,8.212,0,4.745-3.513,8.213-8.144,8.213s-8.144-3.354-8.144-8.213c0-4.631,3.399-8.212,8.144-8.212ZM71.554,24.491c3.65,0,6.09-2.783,6.09-6.388,0-3.719-2.669-6.387-6.09-6.387-3.468,0-6.09,2.668-6.09,6.387,0,3.628,2.669,6.388,6.09,6.388Z"/>
    <path class="cls-1" d="M95.128,24.536c-1.072,1.095-3.056,1.779-5.041,1.779-4.79,0-8.098-3.239-8.098-8.213,0-4.585,2.965-8.212,7.961-8.212,2.053,0,3.719.57,4.859,1.551l-.89,1.46c-1.049-.775-2.281-1.186-3.946-1.186-3.467,0-5.931,2.6-5.931,6.387,0,3.81,2.532,6.388,6.227,6.388,1.529,0,2.989-.525,4.083-1.414l.776,1.46Z"/>
    <path class="cls-1" d="M98.215,26.087v-15.968c.888,0,3.832-.046,4.287-.046,4.357,0,5.68,2.168,5.68,4.745,0,2.486-1.711,4.06-3.466,4.516l5.314,6.753h-2.372l-4.904-6.387h-2.602v6.387h-1.937ZM100.152,11.944v5.931h2.35c1.848,0,3.628-1.14,3.628-3.033,0-1.643-.912-2.943-3.741-2.943-.501,0-1.482.023-2.236.046Z"/>
    <path class="cls-1" d="M112.89,10.119h9.01v1.825h-7.073v5.155h6.388v1.825h-6.388v5.338h7.3v1.825h-9.237v-15.968Z"/>
    <path class="cls-1" d="M130.827,10.028h1.664l6.867,16.059h-2.077l-2.052-4.836h-7.277l-2.03,4.836h-1.961l6.867-16.059ZM128.728,19.427h5.749l-2.875-6.82-2.873,6.82Z"/>
    <path class="cls-1" d="M138.365,10.119h13.117v1.825h-5.589v14.143h-1.939v-14.143h-5.589v-1.825Z"/>
    <path class="cls-1" d="M154.112,10.119h9.01v1.825h-7.073v5.155h6.388v1.825h-6.388v5.338h7.3v1.825h-9.237v-15.968Z"/>
  </g>
</svg>